<svg width="1680" height="123" viewBox="0 0 1680 123" fill="none" xmlns="http://www.w3.org/2000/svg">
<path d="M852.1 4.8999V122.2" stroke="white" stroke-miterlimit="10"/>
<path d="M19.6997 1.3999C19.8997 1.6999 19.2997 2.6999 18.1997 3.4999C17.0997 4.2999 15.9998 4.6999 15.7998 4.3999C15.5998 4.0999 16.1998 3.09991 17.2998 2.29991C18.3998 1.49991 19.4997 1.0999 19.6997 1.3999Z" fill="white"/>
<path d="M18.5007 1.60001C18.5007 2.50001 17.8008 3.2 16.9008 3.2C16.0008 3.2 15.3008 2.50001 15.3008 1.60001C15.3008 0.700006 16.0008 0 16.9008 0C17.8008 0 18.5007 0.700006 18.5007 1.60001Z" fill="white"/>
<path d="M109.901 3.30009C110.784 3.30009 111.501 2.58374 111.501 1.70009C111.501 0.816433 110.784 0.100098 109.901 0.100098C109.017 0.100098 108.301 0.816433 108.301 1.70009C108.301 2.58374 109.017 3.30009 109.901 3.30009Z" fill="white"/>
<path d="M17.6 4.50009L17.3 4.30009C17.3 4.30009 15.2 6.80009 12.8 10.2001C10.4 13.6001 7.59998 17.7001 6.09998 21.0001C6.09998 21.0001 5.70005 21.9001 5.30005 22.9001C5.10005 23.4001 4.89995 23.9001 4.69995 24.4001C4.59995 24.6001 4.6 24.8001 4.5 25.0001C4.5 25.1001 4.50002 25.2001 4.40002 25.2001C4.40002 25.3001 4.40002 25.3001 4.40002 25.4001C4.40002 25.6001 4.40002 25.9001 4.40002 26.2001C4.40002 26.4001 4.40002 26.6001 4.40002 26.7001C4.50002 27.0001 4.60005 27.3001 4.80005 27.5001C4.90005 27.6001 5.09995 27.7001 5.19995 27.8001C5.39995 27.9001 5.60005 27.9001 5.80005 27.9001C5.90005 27.9001 5.90002 27.9001 5.90002 27.9001C5.90002 27.9001 5.90002 28.0001 5.90002 28.1001C5.90002 28.3001 5.79995 28.6001 5.69995 29.0001C5.49995 29.6001 5.09998 30.3001 4.59998 31.0001C4.19998 31.7001 3.69995 32.4001 3.19995 33.0001C2.79995 33.5001 2.39998 34.2001 2.09998 35.0001C1.59998 36.2001 1.20002 37.6001 0.900024 39.2001C0.600024 40.7001 0.299951 42.3001 0.199951 43.9001C-4.88311e-05 45.1001 0 46.7001 0 48.4001C0 50.4001 0.1 52.5001 0.5 54.4001C0.7 55.3001 0.899951 56.1001 1.19995 56.8001C1.49995 57.5001 1.80005 58.1001 2.30005 58.4001C2.90005 58.9001 3.40005 59.2001 3.80005 59.4001C4.10005 59.6001 4.3 59.8001 4.5 59.9001C4.8 60.2001 4.99998 60.4001 5.09998 60.8001C5.19998 61.2001 5.30002 61.7001 5.40002 62.5001C5.50002 63.9001 5.39995 65.6001 5.69995 67.2001C5.79995 68.0001 6.00005 68.8001 6.30005 69.6001C6.60005 70.4001 6.99998 71.1001 7.59998 71.7001C8.39998 72.5001 8.79998 73.6001 9.09998 74.6001C9.39998 75.6001 9.40002 76.5001 9.40002 77.2001C9.40002 77.6001 9.40002 77.9001 9.40002 78.1001V78.2001V78.3001C9.40002 78.3001 9.4 78.4001 9.5 78.4001L9.59998 78.5001H9.69995C9.79995 78.5001 9.80002 78.5001 9.90002 78.5001C10 78.5001 10 78.4001 10 78.4001L10.1 78.3001C10.1 78.2001 10.2 78.1001 10.3 77.9001C10.5 77.4001 10.8 76.4001 11.1 75.3001C11.3 74.2001 11.5 72.9001 11.5 71.6001C11.5 71.0001 11.5 70.3001 11.3 69.7001C11.1 68.5001 10.8 67.6001 10.7 66.9001C10.5 66.1001 10.4 65.5001 10.4 64.7001C10.4 63.7001 10.6 62.5001 11.1 60.6001C11.4 59.4001 11.7 58.4001 11.8 57.7001C12 57.0001 12.1 56.4001 12.1 56.0001C12.1 55.6001 12 55.2001 11.8 54.9001C11.6 54.6001 11.4 54.3001 11.1 54.0001C10.8 53.6001 10.5 53.3001 10.3 53.1001C10.2 53.0001 10.1 52.8001 10.1 52.7001C9.99998 52.6001 10 52.4001 10 52.2001C10 51.9001 10.1 51.5001 10.4 50.9001C10.7 50.3001 11.1 49.6001 11.8 48.7001C13.2 46.8001 15 44.4001 16.5 42.3001C17.2 41.2001 17.9 40.2001 18.3 39.3001C18.5 38.9001 18.7 38.4001 18.9 38.1001C19 37.7001 19.1 37.4001 19.1 37.0001C19.1 35.9001 18.8 35.1001 18.4 34.6001C18 34.1001 17.5 33.7001 17.2 33.5001C17 33.4001 16.8 33.2001 16.7 33.2001C16.6 33.2001 16.6 33.1001 16.6 33.1001L16.4 33.2001H16.7C16.7 33.1001 16.7 33.1001 16.7 33.1001L16.5 33.2001L16.7 33.4001C16.7 33.4001 16.8 33.3001 16.8 33.2001H16.5L16.7 33.4001L16.5 33.3001L16.6 33.5001C16.6 33.5001 16.6 33.5001 16.7 33.5001L16.5 33.4001L16.6 33.6001C16.6 33.6001 16.6 33.6001 16.7 33.6001C16.8 33.6001 17 33.5001 17.4 33.4001C17.5 33.4001 17.7 33.3001 17.8 33.3001C18.1 33.2001 18.4 33.0001 18.9 32.7001C20.4 31.8001 22.8 30.1001 25.1 28.0001C27.4 26.0001 29.8 23.6001 31.2 21.3001L31.4 21.0001L31.1 20.8001C29.4 19.9001 27.7 19.3001 25.6 17.1001C23.5 15.0001 21 11.3001 18.1 4.6001L17.9 4.1001L17.6 4.50009L17.3 4.6001C20.2 11.4001 22.7 15.1001 24.9 17.3001C27.1 19.5001 29 20.2001 30.6 21.1001L30.8 20.8001L30.5 20.6001C28.9 23.2001 25.8 26.1001 23 28.4001C21.6 29.5001 20.3 30.5001 19.2 31.2001C18.7 31.6001 18.2 31.8001 17.8 32.0001C17.6 32.1001 17.5 32.2001 17.3 32.2001C17.2 32.3001 17.1 32.3001 17 32.3001C16.7 32.4001 16.4 32.4001 16.3 32.5001C16.2 32.5001 16.1 32.5001 16.1 32.6001L16 32.7001C16 32.8001 15.9 32.8001 15.9 32.9001C15.9 33.0001 15.9 33.1001 16 33.1001C16.1 33.2001 16.1 33.2001 16.2 33.3001C16.3 33.4001 16.3 33.4001 16.4 33.5001C16.5 33.6001 16.6 33.6001 16.7 33.7001C17.1 34.0001 17.5 34.3001 17.8 34.7001C18.1 35.1001 18.3 35.7001 18.4 36.7001C18.4 36.9001 18.3 37.2001 18.2 37.5001C18 38.1001 17.6 38.8001 17.1 39.7001C15.6 42.2001 13.1 45.4001 11.2 48.0001C10.5 48.9001 10.1 49.7001 9.80005 50.3001C9.50005 50.9001 9.40002 51.4001 9.40002 51.9001C9.40002 52.2001 9.4 52.4001 9.5 52.6001C9.6 52.9001 9.8 53.2001 10 53.4001C10.2 53.7001 10.4 53.9001 10.7 54.1001C11 54.4001 11.2 54.7001 11.3 54.9001C11.4 55.1001 11.5 55.3001 11.5 55.7001C11.5 56.1001 11.4 56.6001 11.3 57.3001C11.1 58.0001 10.9 59.0001 10.6 60.2001C10.1 62.1001 9.90002 63.4001 9.90002 64.5001C9.90002 65.4001 9.99995 66.1001 10.2 66.8001C10.4 67.6001 10.6 68.4001 10.8 69.6001C10.9 70.1001 10.9 70.7001 10.9 71.3001C10.9 72.9001 10.6 74.5001 10.3 75.8001C10.1 76.4001 10 76.9001 9.80005 77.3001C9.70005 77.5001 9.69998 77.6001 9.59998 77.7001V77.8001L9.80005 77.9001L9.69995 77.8001L9.90002 77.9001L9.80005 77.8001L10 78.0001L9.90002 77.7001C9.90002 77.7001 9.90005 77.7001 9.80005 77.7001L10 77.9001V77.6001C9.9 77.6001 9.90002 77.6001 9.90002 77.6001L10 77.9001L10.1 77.6001H10V77.9001L10.3 77.7001L10.2 77.6001L10.1 77.9001L10.4 77.7001L10.2 77.9001L10.5 77.8001V77.7001L10.3 77.9001L10.6 77.8001C10.6 77.6001 10.6 77.3001 10.6 76.9001C10.6 76.2001 10.5 75.2001 10.3 74.1001C10 73.0001 9.49998 71.9001 8.59998 70.9001C8.09998 70.4001 7.7 69.7001 7.5 69.0001C7.1 68.0001 6.90002 66.8001 6.90002 65.6001C6.80002 64.4001 6.80005 63.2001 6.80005 62.1001C6.80005 61.4001 6.7 60.8001 6.5 60.4001C6.4 60.1001 6.2 59.8001 6 59.5001C5.7 59.1001 5.30002 58.9001 4.90002 58.6001C4.50002 58.3001 4.00005 58.0001 3.30005 57.5001C3.00005 57.2001 2.70002 56.8001 2.40002 56.1001C2.00002 55.2001 1.69998 53.9001 1.59998 52.4001C1.39998 51.0001 1.40002 49.4001 1.40002 47.9001C1.40002 46.2001 1.49998 44.7001 1.59998 43.5001C1.79998 41.5001 2.19995 39.3001 2.69995 37.4001C2.89995 36.5001 3.2 35.6001 3.5 34.8001C3.8 34.0001 4.1 33.4001 4.5 32.9001C5.1 32.1001 5.80005 31.1001 6.30005 30.2001C6.60005 29.7001 6.8 29.3001 7 28.8001C7.2 28.4001 7.30005 28.0001 7.30005 27.6001C7.30005 27.5001 7.30005 27.4001 7.30005 27.3001C7.30005 27.1001 7.2 27.0001 7 26.9001C6.9 26.8001 6.7 26.7001 6.5 26.7001C6.3 26.7001 6.19998 26.6001 6.09998 26.6001C5.99998 26.5001 5.90005 26.4001 5.80005 26.2001C5.70005 26.0001 5.69995 25.8001 5.69995 25.6001C5.69995 25.3001 5.69995 25.0001 5.69995 24.8001C5.69995 24.8001 5.69995 24.8001 5.69995 24.7001C5.69995 24.5001 5.9 24.1001 6 23.7001C6.2 23.1001 6.50005 22.3001 6.80005 21.7001C6.90005 21.4001 6.99998 21.1001 7.09998 20.9001C7.19998 20.7001 7.19995 20.6001 7.19995 20.6001C8.59995 17.4001 11.4 13.2001 13.8 9.90009C15 8.20009 16.1 6.80009 16.9 5.70009C17.3 5.20009 17.6 4.80009 17.9 4.50009C18 4.40009 18.1 4.20009 18.2 4.20009C18.3 4.10009 18.3 4.1001 18.3 4.1001L17.6 4.50009Z" fill="white"/>
<path d="M22.5992 14.2C22.5992 14.2 24.1992 17 22.1992 29.1C18.8992 31.7 18.3993 32.1 18.3993 32.1C18.3993 32.1 19.6993 26 19.4993 20.6C19.3993 15.2 17.1992 4.8 17.1992 4.8L17.4993 4.5L22.5992 14.2Z" fill="white"/>
<path d="M13.7993 9.3999C13.7993 9.3999 16.8992 18.7999 16.0992 32.8999C17.2992 33.9999 17.9993 34.9999 17.9993 34.9999C17.9993 34.9999 16.9993 33.8999 15.2993 34.0999C13.5993 34.2999 12.2992 35.0999 12.0992 31.8999C11.8992 28.6999 13.4992 20.6999 9.69922 15.2999C12.4992 10.8999 13.7993 9.3999 13.7993 9.3999Z" fill="white"/>
<path d="M6.6001 20.5C6.6001 20.5 9.10007 22.9 9.70007 27.2C10.3001 31.5 9.90014 36.3 13.4001 36.7C16.8001 37.1 18.7001 36.8 18.7001 36.8L16.8002 41.4C16.8002 41.4 12.2001 42.3 10.4001 38.1C8.60014 33.9 9.60012 28.4 6.00012 27.7C4.40012 27.1 4.90014 25.5 4.90014 25.5L6.6001 20.5Z" fill="white"/>
<path d="M5.40002 30.7998C5.40002 30.7998 7.40005 32.0998 7.80005 37.6998C8.20005 43.1998 13.8 45.0998 13.8 45.0998L10.7 49.3998C10.7 49.3998 7.90005 46.6998 7.30005 44.2998C6.60005 41.8998 6.9 36.6998 2 37.0998C2.4 34.9998 4.60002 31.8998 5.40002 30.7998Z" fill="white"/>
<path d="M1.20032 39.7998C1.20032 39.7998 4.00032 43.2998 5.20032 46.0998C6.40032 48.8998 10.2003 53.4998 10.2003 53.4998L11.6003 54.8998L11.7003 56.7998C11.7003 56.7998 10.0004 55.7998 8.50037 54.7998C7.00037 53.7998 6.20032 52.4998 5.20032 51.0998C4.20032 49.7998 2.90039 48.5998 0.400391 47.2998C0.600391 43.6998 1.20032 39.7998 1.20032 39.7998Z" fill="white"/>
<path d="M0.599609 50.7002C0.599609 50.7002 3.29968 54.4002 4.29968 54.9002C5.29968 55.5002 8.59963 56.4002 9.49963 58.1002C10.3996 59.8002 10.8997 60.9002 10.8997 60.9002L10.0996 64.9002C10.0996 64.9002 9.09961 61.7002 7.59961 60.7002C6.09961 59.7002 2.29968 58.4002 1.79968 57.4002C1.29968 56.3002 0.599609 50.7002 0.599609 50.7002Z" fill="white"/>
<path d="M5.59961 62.2002C5.59961 62.2002 7.49963 65.3002 8.49963 66.6002C9.49963 67.9002 11.1996 70.6002 11.1996 70.6002L10.8997 74.4002C10.8997 74.4002 10.6997 71.6002 9.39966 70.7002C8.09966 69.8002 6.19958 68.9002 6.19958 68.5002C6.09958 68.0002 5.59961 62.2002 5.59961 62.2002Z" fill="white"/>
<path d="M92.0992 57.4001H91.3993C91.3993 65.1001 88.2992 72.1001 83.1992 77.2001C78.0992 82.3001 71.1993 85.4001 63.3993 85.4001C55.6993 85.4001 48.6992 82.3001 43.5992 77.2001C38.4992 72.1001 35.3993 65.2001 35.3993 57.4001C35.3993 49.7001 38.4992 42.7001 43.5992 37.6001C48.6992 32.5001 55.5993 29.4001 63.3993 29.4001C71.0993 29.4001 78.0992 32.5001 83.1992 37.6001C88.2992 42.7001 91.3993 49.6001 91.3993 57.4001H92.0992H92.7993C92.7993 49.3001 89.4992 42.0001 84.1992 36.7001C78.8992 31.4001 71.5993 28.1001 63.4993 28.1001C55.3993 28.1001 48.0993 31.4001 42.7993 36.7001C37.4993 42.0001 34.1992 49.3001 34.1992 57.4001C34.1992 65.5001 37.4993 72.8001 42.7993 78.1001C48.0993 83.4001 55.3993 86.7001 63.4993 86.7001C71.5993 86.7001 78.8992 83.4001 84.1992 78.1001C89.4992 72.8001 92.7993 65.5001 92.7993 57.4001H92.0992Z" fill="white"/>
<path d="M89.8997 57.5H89.6996C89.6996 64.7 86.7996 71.2 82.0996 76C77.3996 80.7 70.8996 83.6 63.5996 83.6C56.3996 83.6 49.8996 80.7 45.0996 76C40.3996 71.3 37.4996 64.8 37.4996 57.5C37.4996 50.3 40.3996 43.8 45.0996 39C49.7996 34.3 56.2996 31.4 63.5996 31.4C70.7996 31.4 77.2996 34.3 82.0996 39C86.7996 43.7 89.6996 50.2 89.6996 57.5H89.8997H90.0996C90.0996 42.8 78.1996 31 63.5996 31C48.8996 31 37.0996 42.9 37.0996 57.5C37.0996 72.2 48.9996 84 63.5996 84C78.2996 84 90.0996 72.1 90.0996 57.5H89.8997Z" fill="white"/>
<path d="M95.9004 21.1L96.0004 21.4C96.0004 21.4 97.5004 20.7 99.3004 19.5C101.1 18.2 103.4 16.4 105 14.1C107.5 10.5 108.7 8.1 109.4 6.7C110.1 5.2 110.1 4.70001 110.1 4.60001H109.8L109.5 4.8C109.5 4.8 110.9 7.09999 112.8 9.39999C113.7 10.6 114.7 11.7 115.7 12.6C116.2 13 116.7 13.4 117.2 13.7C117.7 14 118.2 14.2 118.6 14.2C119.4 14.2 120 14.2 120.4 14.3C120.7 14.4 121 14.5 121.2 14.6C121.4 14.7 121.5 14.9 121.6 15.1C121.8 15.4 122 15.9 122.2 16.5C122.4 17.1 122.5 18 122.7 19C123.1 21.5 123.7 25.7 124.5 29.8C124.9 31.9 125.3 33.9 125.7 35.7C126.2 37.5 126.6 39.1 127.2 40.3C127.5 40.9 127.6 41.7 127.6 42.5C127.6 43.5 127.4 44.7 127.1 45.7C126.8 46.7 126.5 47.6 126.3 48.2C126.3 48.3 126.2 48.5 126.1 48.8C125.8 49.8 125.3 51.6 125.3 53.8C125.3 55.6 125.7 57.6 126.9 59.5C127.8 60.9 128.1 62.7 128.1 64.7C128.1 68.5 126.7 73 125.4 76.6C124.7 78.4 124 79.9 123.5 81C123.2 81.5 123 82 122.9 82.3C122.8 82.4 122.8 82.6 122.7 82.6V82.7L123 82.9H123.3C123.3 82.9 123.9 79 123.9 74.6C123.9 72.8 123.8 70.9 123.5 69.2C123.2 67.5 122.8 65.8 122.1 64.6C120.5 61.9 118.3 59.2 116.5 56.8C115.6 55.6 114.8 54.5 114.2 53.5C113.6 52.5 113.3 51.6 113.3 50.8C113.3 49.4 113.5 48.1 113.8 47C114 45.8 114.3 44.8 114.3 43.8C114.3 43.5 114.3 43.1 114.2 42.8C114.1 42.3 114 41.9 113.8 41.5C113.6 40.9 113.4 40.4 113.2 39.6C113 38.8 112.8 37.8 112.6 36.2C112.5 35.1 112.3 34.2 112.2 33.4C112.1 32.8 111.9 32.2 111.7 31.7C111.4 30.9 111 30.3 110.4 29.9C109.8 29.5 109 29.2 108 29.2C107.2 29.2 106.4 29.1 105.7 28.9C104.6 28.6 103.4 28.1 102 26.9C100.5 25.7 98.7004 23.9 96.3004 21.1H95.9004L95.7003 21.3C99.0003 25 101.1 27.1 103 28.2C103.9 28.8 104.7 29.1 105.6 29.3C106.4 29.5 107.2 29.6 108.1 29.6C108.9 29.6 109.5 29.8 110 30.1C110.3 30.3 110.6 30.6 110.9 30.9C111.2 31.4 111.5 32.1 111.7 33C111.9 33.9 112 34.9 112.2 36.1C112.5 38.2 112.8 39.4 113 40.3C113.1 40.8 113.3 41.1 113.4 41.5C113.5 41.9 113.6 42.3 113.7 42.8C113.8 43.1 113.8 43.3 113.8 43.6C113.8 44.5 113.6 45.5 113.3 46.7C113.1 47.9 112.8 49.2 112.8 50.7C112.8 51.6 113.2 52.6 113.8 53.7C114.7 55.3 116.1 57.1 117.6 58.9C119.1 60.8 120.6 62.8 121.7 64.8C122.4 66 122.8 67.5 123.1 69.2C123.4 70.9 123.5 72.7 123.5 74.5C123.5 76.7 123.4 78.7 123.2 80.3C123.1 81.1 123.1 81.7 123 82.1C123 82.3 122.9 82.5 122.9 82.6C122.9 82.7 122.9 82.7 122.9 82.7L123.5 82.9C123.5 82.9 124.9 80.3 126.3 76.8C127.7 73.2 129.1 68.7 129.1 64.7C129.1 62.6 128.7 60.7 127.7 59.1C126.6 57.3 126.3 55.4 126.2 53.7C126.2 52.3 126.4 51.1 126.7 50.1C126.8 49.6 126.9 49.2 127 48.9C127.1 48.6 127.2 48.4 127.2 48.3C127.4 47.7 127.7 46.8 128 45.8C128.3 44.8 128.5 43.6 128.5 42.5C128.5 41.6 128.4 40.8 128 40C127.5 38.9 127 37.3 126.5 35.5C125.8 32.8 125.2 29.6 124.8 26.5C124.3 23.5 123.9 20.7 123.6 18.8C123.4 17.5 123.2 16.6 122.9 15.9C122.7 15.4 122.5 14.9 122.3 14.6C122.1 14.3 121.9 14.1 121.7 14C121.3 13.8 120.9 13.7 120.4 13.6C119.9 13.5 119.4 13.5 118.7 13.5C118.4 13.5 118 13.4 117.6 13.1C116.9 12.7 116 11.9 115.2 11C113.9 9.6 112.7 8 111.7 6.7C111.2 6 110.8 5.5 110.6 5C110.5 4.8 110.4 4.6 110.3 4.5C110.3 4.4 110.2 4.39999 110.2 4.39999L109.6 3.5L109.5 4.5C109.5 4.5 109.4 5.1 108.8 6.5C108.2 7.9 106.9 10.2 104.5 13.7C103 15.9 100.8 17.7 99.0004 19C98.1004 19.6 97.3003 20.1 96.7003 20.4C96.4003 20.6 96.2004 20.7 96.0004 20.8C95.9004 20.8 95.9004 20.9 95.8004 20.9L95.4004 21.1L95.7003 21.4L95.9004 21.1Z" fill="white"/>
<path d="M103.501 15.6003C104.301 16.8003 106.101 18.3003 107.201 16.5003C108.001 15.2003 106.901 13.5003 105.901 12.5003C105.401 12.1003 104.701 12.8003 105.201 13.2003C105.801 13.8003 106.601 14.7003 106.501 15.5003C106.301 17.1003 104.801 15.6003 104.401 15.0003C104.001 14.6003 103.101 15.1003 103.501 15.6003Z" fill="white"/>
<path d="M111.4 18.6998C110.9 18.0998 110.2 16.8998 109.4 16.7998C108.6 16.6998 107.7 17.1998 107.5 17.9998C107.1 19.2998 108.4 20.8998 109.6 21.2998C110.2 21.4998 110.9 21.1998 111.3 20.6998C111.7 20.0998 111.6 19.3998 111.4 18.6998C111.1 18.0998 110.3 18.5998 110.5 19.1998C110.7 19.6998 110.6 20.2998 110 20.2998C109.6 20.2998 109.1 19.8998 108.9 19.5998C108.5 19.1998 108 18.1998 108.8 17.8998C108.9 17.7998 109.1 17.7998 109.3 17.7998C109.4 17.7998 109.4 17.7998 109.3 17.7998C109.4 17.7998 109.5 17.8998 109.6 17.9998C110 18.2998 110.3 18.6998 110.6 19.0998C110.9 19.6998 111.7 19.2998 111.4 18.6998Z" fill="white"/>
<path d="M116.001 22.7C115.601 22.1 115.001 21 114.201 20.7C113.301 20.4 112.301 20.9 112.101 21.8C111.801 23.1 112.801 24.6 114.001 25C115.401 25.5 116.501 24.1 116.001 22.8C115.801 22.2 114.801 22.5 115.001 23.1C115.101 23.6 115.101 24.2 114.501 24.2C114.201 24.2 113.801 23.9 113.601 23.7C113.201 23.3 112.601 22.1 113.301 21.8C114.101 21.4 114.801 22.8 115.101 23.3C115.501 23.8 116.301 23.3 116.001 22.7Z" fill="white"/>
<path d="M118.7 28.3002C118.5 27.5002 118.4 26.4002 117.9 25.8002C117.2 24.9002 116.1 25.3002 115.7 26.3002C115.2 27.4002 115.6 29.1002 116.5 29.9002C116.9 30.3002 117.5 30.4002 118 30.1002C118.6 29.8002 118.8 29.0002 118.8 28.4002C118.9 27.8002 117.9 27.8002 117.8 28.4002C117.8 28.7002 117.7 29.4002 117.2 29.2002C116.9 29.0002 116.8 28.5002 116.7 28.2002C116.6 27.9002 116.3 26.2002 117 26.2002C117.4 26.2002 117.5 27.0002 117.5 27.2002C117.6 27.6002 117.7 28.1002 117.8 28.5002C117.9 29.2002 118.8 28.9002 118.7 28.3002Z" fill="white"/>
<path d="M120.7 35.1C120.6 34.1 120.6 33 120.2 32.1C119.8 31.1 118.8 31.4 118.4 32.2C117.9 33.4 117.9 35.3 118.5 36.4C118.7 36.9 119.2 37.1 119.7 36.9C120.4 36.7 120.6 35.8 120.7 35.1C120.8 34.5 119.8 34.5 119.7 35.1C119.7 35.4 119.4 36.4 119.2 35.6C119.1 35.2 119.1 34.8 119.1 34.3C119.1 34 119.1 33.6 119.1 33.3C119.1 33.1 119.2 32.9 119.2 32.7C119.2 32.6 119.3 32.5 119.3 32.4C119.4 32.3 119.3 32.3 119.2 32.3C119.2 32.8 119.4 33.3 119.5 33.8C119.6 34.2 119.6 34.6 119.7 35C119.8 35.7 120.8 35.7 120.7 35.1Z" fill="white"/>
<path d="M105.8 16.2003C106.5 17.1003 107.4 18.1003 108.4 18.6003C109 18.9003 109.5 18.0003 108.9 17.7003C108.3 17.4003 107.8 17.0003 107.3 16.5003C107.1 16.3003 106.9 16.1003 106.8 15.9003C106.7 15.8003 106.7 15.8003 106.6 15.7003C106.6 15.6003 106.5 15.6003 106.6 15.7003C106.2 15.2003 105.4 15.7003 105.8 16.2003Z" fill="white"/>
<path d="M110.3 20.6C111.3 21.2 112.3 21.8 113.2 22.5C113.7 22.9 114.2 22 113.7 21.6C112.8 20.9 111.8 20.3 110.8 19.7C110.2 19.4 109.7 20.3 110.3 20.6Z" fill="white"/>
<path d="M114.5 24.1001C115.2 24.8001 115.8 25.7 116.3 26.5C116.6 27.1 117.5 26.6 117.2 26C116.7 25 116 24.1 115.2 23.4C114.8 22.9 114.1 23.6001 114.5 24.1001Z" fill="white"/>
<path d="M117.401 29.4C118.201 30.3 118.601 31.6 118.801 32.7C118.901 33.3 119.901 33.1 119.801 32.4C119.601 31.1 119.1 29.6 118.1 28.6C117.6 28.3 116.901 29 117.401 29.4Z" fill="white"/>
<path d="M119.101 35.5999C118.901 36.7999 119.301 38.1999 119.601 39.3999C119.801 39.9999 120.701 39.7999 120.601 39.0999C120.401 38.2999 120.201 37.4999 120.101 36.5999C120.101 36.3999 120.101 36.1999 120.101 35.9999C120.101 35.8999 120.101 35.5999 120.101 35.8999C120.101 35.1999 119.201 34.9999 119.101 35.5999Z" fill="white"/>
<path d="M115.8 33.2002C115.8 33.2002 115.6 32.6002 115.2 32.6002C115.3 33.5002 115.3 33.6002 115.4 34.2002C115.5 34.8002 115.5 35.8002 115.7 37.7002C115.9 39.6002 116.8 44.3002 115.9 48.7002C115.4 49.4002 115 49.7002 115 48.3002C115 46.9002 115.3 40.0002 115 39.1002C114.6 38.1002 113.9 37.7002 113.5 37.6002C114.3 38.7002 114.5 39.9002 114.5 40.5002C114.5 41.0002 114.4 47.6002 114.5 48.2002C114.6 48.8002 114.6 50.6002 115.6 49.7002C115.7 50.8002 115.8 50.8002 116.2 51.3002C116.6 51.8002 116.3 52.9002 116 53.6002C115.7 54.2002 116.9 56.5002 117.1 57.0002C117.3 57.5002 118.5 58.5002 119.2 57.2002C119.6 56.1002 118.2 57.0002 118.1 56.9002C118 56.8002 117.3 56.8002 116.4 54.9002C117.2 53.5002 117.5 52.0002 117.3 51.4002C117.1 50.8002 116.3 50.1002 116.3 50.1002C116.3 50.1002 117.3 49.3002 117.5 49.6002C117.7 49.9002 118 50.5002 117.7 51.4002C118.1 51.7002 119 52.1002 119.2 52.7002C119.4 53.3002 119.9 52.9002 119.9 52.3002C119.9 51.7002 119.4 51.0002 118.9 50.9002C118.5 50.8002 118.6 50.6002 118.7 49.8002C118.8 49.0002 118.5 46.8002 116.5 48.9002C116.7 48.0002 118.2 42.9002 117.5 39.2002C118 38.4002 118.5 37.0002 118.6 36.5002C118.7 36.0002 118.3 34.0002 118.3 34.0002C118.3 34.0002 118 37.7002 117.3 38.6002C117.1 37.7002 116.6 36.8002 116.6 36.6002C116.6 36.4002 116.5 35.1002 116.5 35.1002C116.5 35.1002 117.4 34.0002 117.5 33.7002C117.6 33.4002 117.9 32.3002 117.7 32.5002C117.4 32.7002 117 33.3002 116.8 33.2002C116.7 33.1002 116.5 32.7002 115.8 33.2002Z" fill="white"/>
<path d="M121.5 26.0999C121.5 26.0999 121.6 25.0999 121.9 24.3999C122 25.2999 122 25.3999 122.1 25.9999C122.2 26.5999 122.4 27.3999 122.5 29.3999C122.6 31.3999 122.9 36.6999 124.4 38.5999C124.9 37.9999 125.3 37.4999 125 36.3999C124.7 35.2999 123.4 30.5999 123.3 29.0999C123.2 27.4999 123.5 26.2999 123.8 25.3999C123.7 27.6999 123.9 28.6999 124 29.0999C124.1 29.4999 125.4 34.5999 125.5 35.1999C125.6 35.7999 125.8 37.3999 125 38.4999C125.1 39.5999 125.1 39.7999 124.8 40.9999C124.6 42.1999 125.1 42.3999 125.4 42.2999C125.8 42.1999 125.7 45.9999 125.6 46.7999C125.5 47.5999 125.2 49.8999 124 50.5999C123.5 50.5999 124.3 49.0999 124.4 48.8999C124.4 48.6999 125.2 46.9999 125.2 44.2999C124.3 44.7999 123.8 44.1999 123.8 43.2999C123.8 42.4999 124.3 40.2999 124.3 40.2999C124.3 40.2999 123.4 41.5999 123.3 42.2999C123.2 42.9999 123.1 43.9999 123.5 44.1999C123.2 45.2999 122.6 47.3999 122.6 48.1999C122.6 48.9999 122.1 49.7999 121.9 49.3999C121.8 48.8999 122.1 47.2999 122.4 46.2999C122.7 45.2999 122.6 45.3999 122.3 44.9999C122 44.5999 121.9 42.2999 123.8 39.8999C123.5 39.4999 121.3 38.5999 121.2 34.2999C120.7 34.6999 120.1 35.0999 119.9 34.7999C119.8 34.4999 119.6 33.5999 119.6 33.5999C119.6 33.5999 120.5 34.0999 121.2 33.4999C121.2 32.3999 121.4 30.7999 121.4 30.5999C121.4 30.3999 121.2 29.1999 121.2 29.1999C121.2 29.1999 120.3 30.1999 120.1 30.0999C119.9 30.0999 119.5 29.7999 119.7 29.4999C120 29.1999 120.4 28.6999 120.6 28.1999C120.8 27.7999 120.9 26.8999 121.5 26.0999Z" fill="white"/>
<path d="M118.6 39.8C118.6 39.8 120.9 38.5 121.4 38C122 37.5 121.5 39 121.5 39C121.5 39 121.9 40.6 122 41.7C122 45.6 121.4 46.6 120.1 47.1C120.1 47.1 118.4 47.7 118.3 44.7C118.2 42.2 118.7 40.9 118.7 40.9C118.7 40.9 118.1 40 118.6 39.8Z" fill="white"/>
<path d="M117.601 39.5999C117.601 39.5999 118.401 39.9999 118.901 39.9999C119.401 39.9999 118.701 40.5999 118.701 40.5999C118.701 40.5999 117.701 40.0999 117.501 39.8999C117.301 39.6999 117.301 39.6999 117.301 39.6999L117.601 39.3999V39.5999Z" fill="white"/>
<path d="M121.2 38.3001C121.2 38.3001 121.6 36.8001 121.7 35.4001C121.8 33.9001 122.2 37.4001 121.5 38.7001C120.6 40.1001 120.4 40.4001 121.2 38.3001Z" fill="white"/>
<path d="M107.101 1.3999C106.901 1.6999 107.501 2.6999 108.601 3.4999C109.701 4.2999 110.801 4.6999 111.001 4.3999C111.201 4.0999 110.601 3.09991 109.501 2.29991C108.401 1.49991 107.401 1.0999 107.101 1.3999Z" fill="white"/>
<path d="M55.0007 35L53.4008 35.3L52.0007 35.9L50.8008 36.4L49.7007 37.1L48.8008 37.9L48.0007 38.7L47.4008 39.6L46.8008 40.6L46.3008 41.7L46.0007 42.8L45.8008 43.9L45.6007 45.1L45.5007 46.4V47.6V48.9L45.6007 50.2L45.8008 52.8L46.2007 55.4L46.6007 58L46.8008 60.4V61.6L46.9008 62.7L46.8008 63.7V64.7L46.6007 65.7L46.4008 66.5L46.1007 67.2L45.6007 68L45.3008 67.7L44.8008 67.5L44.4008 66.9L43.9008 66.2L43.7007 65.7L43.4008 65.2L43.3008 64.6L43.1007 64.1L43.0007 63.3L42.9008 62.6V61.7V60.8L42.1007 60.9L41.6007 61L41.3008 61.2L41.0007 61.3L40.7007 61.6L40.5007 61.8L40.3008 62.1L40.0007 62.7L39.9008 63.3L39.8008 64.1L40.0007 64.9L40.1007 65.7L40.4008 66.4L40.8008 67.2L41.1007 68.2L41.6007 68.8L42.1007 69.7L42.6007 70.3L43.2007 70.8L45.2007 70.2L46.8008 69.3L47.6007 69L48.2007 68.5L48.7007 68.2L49.2007 67.7L49.7007 67.2L50.1007 66.7L50.4008 66.3L50.7007 65.8L50.9008 65.3L51.1007 64.8L51.4008 63.7V62.6V61.4L51.3008 60.2L51.1007 58.8L50.6007 55.9L50.4008 54.4L50.3008 52.7L50.2007 52.2L50.0007 50.8V48.6V47.4L50.1007 46L50.3008 44.6L50.5007 43.1L50.9008 41.6L51.4008 40.2L52.1007 38.7L52.4008 38.1L52.9008 37.4L53.3008 36.8L53.8008 36.1L54.4008 35.6L55.0007 35Z" fill="white"/>
<path d="M66.7003 72.1998V71.1998V70.1998L67.0004 68.2998L67.4004 66.6998L67.9004 65.1998L68.9004 62.1998L69.4004 60.7998L69.9004 59.4998L70.2003 58.1998V57.4998V56.8998V56.1998V55.4998L70.1003 54.7998L69.9004 54.0998L69.6003 53.2998L69.3004 52.5998L68.8004 51.7998L68.3004 50.9998L67.8004 50.0998L67.1003 49.1998L66.3004 48.2998L65.4004 47.2998L63.4004 48.8998L61.3004 50.4998L58.8004 52.1998V49.6998V47.0998L59.0004 44.0998V42.4998L59.3004 41.0998L59.6003 39.6998L59.8004 38.4998L60.3004 37.3998L60.5004 36.9998L60.8004 36.5998L61.1003 36.3998L61.4004 36.0998L61.7003 35.8998H62.1003L62.4004 36.1998L62.7003 36.4998L63.2003 36.7998L63.7003 37.0998L64.2003 37.2998L64.8004 37.3998L65.4004 37.4998L66.0004 37.5998L66.7003 37.4998L67.3004 37.3998L68.0004 37.0998L68.7003 36.6998L69.4004 36.1998L70.0004 35.5998L70.7003 34.6998L71.2003 33.7998L70.7003 33.9998L70.2003 34.1998L69.7003 34.2998L69.2003 34.3998H68.2003L67.2003 34.2998L66.2003 34.0998L65.3004 33.6998L64.3004 33.2998L63.4004 32.7998L62.3004 33.1998L61.4004 33.6998L60.4004 34.2998L59.6003 34.8998L58.8004 35.5998L58.1003 36.3998L57.5004 37.3998L56.9004 38.2998L56.5004 39.3998L56.1003 40.4998L55.8004 41.7998L55.6003 43.0998L55.3004 44.5998V46.0998V47.7998V49.4998L55.9004 56.8998L56.0004 60.7998L56.1003 64.5998V66.3998V68.1998L56.0004 69.7998L55.9004 71.2998L55.6003 72.6998L55.3004 73.7998L55.0004 74.6998L54.8004 75.1998L54.5004 75.3998L53.6003 74.8998L52.8004 74.3998L52.0004 73.9998L51.4004 73.6998L50.8004 73.4998L50.2003 73.3998L49.7003 73.2998H49.2003L48.7003 73.3998L48.4004 73.4998L47.6003 73.7998L45.9004 74.6998L46.8004 74.8998L47.6003 75.1998L48.2003 75.6998L48.8004 75.9998L49.8004 76.8998L50.2003 77.1998L50.6003 77.6998L51.1003 77.8998L51.5004 77.9998L52.1003 78.1998L52.7003 77.9998L53.5004 77.6998L54.3004 77.1998L55.3004 76.6998L56.4004 75.6998L56.9004 75.1998L57.3004 74.7998L57.7003 74.3998L58.0004 73.8998L58.6003 72.7998L59.0004 71.6998L59.3004 70.3998L59.6003 69.1998L59.7003 67.8998V66.6998V65.3998L59.6003 64.0998L59.5004 61.7998L59.2003 59.7998L59.0004 58.3998L58.9004 54.0998L59.3004 53.7998L59.6003 53.2998L60.1003 53.0998L60.6003 52.7998L61.1003 52.5998L61.6003 52.4998L62.1003 52.5998L62.6003 52.6998L63.0004 53.0998L63.5004 53.5998L63.9004 54.2998L64.3004 55.1998L64.6003 56.3998L64.9004 57.7998L65.1003 59.4998L65.3004 61.5998L65.4004 62.8998V64.2998L65.2003 66.4998L65.1003 68.3998L64.8004 69.9998L64.6003 71.3998L64.5004 72.7998V73.4998L64.6003 74.1998V74.8998L64.8004 75.6998L65.2003 77.2998L65.4004 78.1998L65.7003 78.7998L66.0004 79.2998L66.4004 79.7998L66.7003 80.2998L67.1003 80.6998L67.5004 80.8998L67.9004 81.1998H68.3004H68.8004L69.3004 80.9998L69.8004 80.7998L70.4004 80.3998L71.0004 79.8998L71.6003 79.2998L71.9004 78.8998L72.0004 78.7998V78.4998V78.3998V78.2998L71.8004 77.9998L71.4004 77.8998L70.3004 77.4998L69.7003 77.1998L69.1003 76.8998L68.5004 76.4998L67.9004 75.8998L67.4004 75.1998L67.2003 74.7998L67.0004 74.3998L66.8004 73.8998L66.7003 73.3998V72.6998V72.1998Z" fill="white"/>
<path d="M82.3008 55.6H82.1007L80.8008 54.6L80.1007 54L79.4008 53.3L78.7007 52.6L78.1007 51.8L77.5007 50.9L77.0007 50L76.5007 49.2L76.2007 48.3L76.0007 47.4V46.6L76.1007 46.1L76.2007 45.7L76.3008 45.4L76.5007 44.9L76.8008 44.5L77.1007 44.1L77.5007 43.8L77.9008 43.4L78.9008 43.9L80.0007 44.6L81.0007 45.5L82.0007 46.5L82.9008 47.7L83.4008 48.3L83.7007 49L84.1007 49.7L84.4008 50.4L84.7007 51.1L84.9008 51.9L85.1007 51.5L85.3008 51L85.5007 50.2L85.6007 49.2V48.3L85.4008 47.4L85.1007 46.5L84.7007 45.6L84.1007 44.7L83.4008 43.8L82.8008 43L82.0007 42.2L81.1007 41.5L80.2007 40.7L79.3008 40.1L78.4008 39.5L77.4008 39L76.5007 40.2L75.8008 41.4L75.2007 42.5L74.7007 43.5L74.1007 44.5L73.8008 45.4L73.4008 46.4L73.2007 47.2L73.1007 48.1L72.9008 48.9L72.8008 49.6V50.3L72.9008 51L73.0007 51.6L73.1007 52.3L73.3008 52.8L73.8008 53.8L74.4008 54.8L74.9008 55.6L75.6007 56.4L76.3008 56.9L76.9008 57.5L77.9008 58.3L78.9008 59.2L79.7007 60L80.3008 61L80.9008 61.8L81.3008 62.8L81.8008 63.7L82.1007 64.6L82.3008 65.7L82.4008 66.4V67.3V68.2L82.3008 68.9L82.2007 69.7L82.0007 70.3L81.8008 70.8L81.5007 71.3L81.1007 71.8L80.7007 72.2L80.3008 72.3L79.9008 72.4H79.4008L78.9008 72.3L78.4008 72.2L77.9008 71.7L77.4008 71.2L76.9008 70.4L76.4008 69.5L75.9008 68.5L75.4008 67.2L74.9008 65.9L74.4008 64.2L74.0007 62.4L73.7007 63.4L73.5007 64.5L73.4008 65.7V66.9L73.6007 68.2L73.8008 69.3L74.1007 70.5L74.4008 71.7L74.9008 72.8L75.4008 73.7L76.0007 74.7L76.5007 75.3L76.8008 75.5L77.2007 75.8L77.5007 75.9L77.8008 76.2H78.2007H78.6007H78.9008L79.3008 75.9L80.0007 75.7L80.7007 75.2L81.5007 74.4L82.4008 73.7L83.3008 72.7L84.2007 71.7L85.0007 70.4L85.7007 69.2L86.0007 68.4L86.2007 67.7L86.4008 66.9L86.6007 66.2V65.4V64.6V63.8L86.5007 62.9L86.3008 62.1L86.0007 61.2L85.6007 60.3L85.2007 59.4L84.6007 58.5L83.9008 57.5L83.1007 56.6L82.3008 55.6Z" fill="white"/>
<path d="M54.0007 104.5V104.3C54.3007 104.3 54.6008 104.2 54.8008 104.2C55.0008 104.1 55.2008 104 55.3008 103.9C55.4008 103.8 55.4008 103.6 55.4008 103.3C55.4008 103 55.4008 102.5 55.4008 101.9V99.8C55.4008 99.2 55.4008 98.8 55.3008 98.6C55.3008 98.4 55.2007 98.2 55.1007 98.1C55.0007 98 54.9007 97.9 54.6007 97.8C54.3007 97.7 54.1008 97.7 53.8008 97.7V97.5C53.9008 97.5 54.1007 97.5 54.2007 97.5C54.4007 97.5 54.6008 97.5 54.9008 97.5C55.3008 97.5 55.6007 97.5 55.7007 97.5C55.9007 97.5 56.1007 97.5 56.2007 97.5C56.2007 97.8 56.2007 98.2 56.1007 98.4C56.1007 98.7 56.1007 98.9 56.1007 99V102.4C56.1007 103 56.1007 103.4 56.2007 103.6C56.2007 103.8 56.3008 104 56.4008 104.1C56.5008 104.2 56.7008 104.3 56.9008 104.3C57.1008 104.4 57.4007 104.4 57.7007 104.4V104.6C57.2007 104.6 56.8007 104.6 56.5007 104.6C56.2007 104.6 56.0008 104.6 55.8008 104.6C55.6008 104.6 55.3007 104.6 55.1007 104.6C54.9007 104.5 54.5007 104.5 54.0007 104.5Z" fill="white"/>
<path d="M59 104.8L58.9 104.6C59.7 104.2 60.4 103.7 60.9 103.2C61.4 102.7 61.8 102.1 62 101.4C61.7 101.5 61.5 101.7 61.3 101.7C61.1 101.8 60.8 101.8 60.6 101.8C60 101.8 59.5 101.6 59.1 101.2C58.7 100.8 58.5 100.3 58.5 99.6998C58.5 98.9998 58.7 98.3998 59.2 97.9998C59.7 97.4998 60.3 97.2998 61 97.2998C61.8 97.2998 62.4 97.4998 62.8 97.9998C63.2 98.4998 63.5 99.0998 63.5 99.8998C63.5 101 63.1 102 62.3 102.8C61.5 103.6 60.4 104.3 59 104.8ZM62.1 101C62.2 100.8 62.2 100.6 62.2 100.4C62.2 100.2 62.2 99.9998 62.2 99.7998C62.2 99.0998 62.1 98.5998 61.8 98.1998C61.5 97.7998 61.2 97.5998 60.8 97.5998C60.4 97.5998 60 97.7998 59.8 98.0998C59.6 98.3998 59.4 98.8998 59.4 99.3998C59.4 99.9998 59.6 100.5 59.9 100.9C60.2 101.3 60.6 101.5 61.2 101.5C61.4 101.5 61.5 101.5 61.7 101.4C61.9 101.3 62 101.2 62.1 101Z" fill="white"/>
<path d="M63.7993 104.5L63.6992 104.4C64.8992 103.4 65.7993 102.5 66.2993 101.7C66.8993 100.9 67.0992 100.2 67.0992 99.6002C67.0992 99.1002 66.9993 98.8002 66.7993 98.5002C66.5993 98.2002 66.2993 98.1002 65.8993 98.1002C65.5993 98.1002 65.2993 98.2002 64.9993 98.3002C64.6993 98.5002 64.3992 98.7002 64.1992 99.0002L63.9993 98.9002C64.2993 98.3002 64.5993 97.9002 64.9993 97.6002C65.3993 97.3002 65.7993 97.2002 66.2993 97.2002C66.7993 97.2002 67.2992 97.4002 67.5992 97.8002C67.9992 98.2002 68.0992 98.7002 68.0992 99.2002C68.0992 99.8002 67.7993 100.5 67.2993 101.2C66.7993 101.9 65.9993 102.7 64.7993 103.6H66.5992C66.9992 103.6 67.1993 103.6 67.3993 103.6C67.5993 103.6 67.6993 103.5 67.7993 103.5C67.8993 103.4 67.9992 103.3 68.0992 103.1C68.1992 102.9 68.2993 102.7 68.4993 102.5L68.6992 102.6L67.8993 104.6C67.3993 104.6 67.0993 104.6 66.7993 104.6C66.4993 104.6 66.2992 104.6 66.0992 104.6C65.6992 104.6 65.1993 104.6 64.7993 104.6C64.3993 104.6 64.1993 104.5 63.7993 104.5Z" fill="white"/>
<path d="M69.6992 104.8L69.5992 104.6C70.3992 104.2 71.0992 103.7 71.5992 103.2C72.0992 102.7 72.4992 102.1 72.6992 101.4C72.3992 101.5 72.1993 101.7 71.9993 101.7C71.7993 101.8 71.4993 101.8 71.2993 101.8C70.6993 101.8 70.1993 101.6 69.7993 101.2C69.3993 100.8 69.1992 100.3 69.1992 99.6998C69.1992 98.9998 69.3993 98.3998 69.8993 97.9998C70.3993 97.5998 70.9992 97.2998 71.6992 97.2998C72.4992 97.2998 73.0993 97.4998 73.4993 97.9998C73.8993 98.4998 74.1992 99.0998 74.1992 99.8998C74.1992 101 73.7993 102 72.9993 102.8C72.1993 103.6 71.0992 104.3 69.6992 104.8ZM72.7993 101C72.8993 100.8 72.8993 100.6 72.8993 100.4C72.8993 100.2 72.8993 99.9998 72.8993 99.7998C72.8993 99.0998 72.7993 98.5998 72.4993 98.1998C72.1993 97.7998 71.8993 97.5998 71.4993 97.5998C71.0993 97.5998 70.6993 97.7998 70.4993 98.0998C70.2993 98.3998 70.0992 98.8998 70.0992 99.3998C70.0992 99.9998 70.2992 100.5 70.5992 100.9C70.8992 101.3 71.2993 101.5 71.8993 101.5C72.0993 101.5 72.1993 101.5 72.3993 101.4C72.5993 101.3 72.6993 101.2 72.7993 101Z" fill="white"/>
<path d="M43.3008 101.3H50.6007V101.1H43.3008" fill="white"/>
<path d="M78 101.3H85.3V101.1H78" fill="white"/>
<path d="M43.4004 95.2002V95.1002C43.8004 95.1002 44.1003 95.0002 44.2003 94.9002C44.3003 94.8002 44.4004 94.4002 44.4004 93.9002V91.1002C44.4004 90.6002 44.3003 90.3002 44.2003 90.1002C44.1003 90.0002 43.8004 89.9002 43.4004 89.8002V89.7002C43.6004 89.7002 44.0004 89.7002 44.4004 89.7002C44.8004 89.7002 45.2004 89.7002 45.4004 89.7002C45.7004 89.7002 46.1004 89.7002 46.4004 89.7002C46.7004 89.7002 47.2003 89.7002 47.6003 89.7002L47.5004 91.0002H47.4004C47.4004 90.6002 47.3003 90.3002 47.1003 90.2002C46.9003 90.0002 46.5004 90.0002 45.9004 90.0002H45.1003V92.4002H46.0004C46.4004 92.4002 46.7004 92.3002 46.8004 92.2002C47.0004 92.1002 47.1003 91.9002 47.1003 91.6002H47.2003C47.2003 91.9002 47.2003 92.1002 47.2003 92.3002C47.2003 92.5002 47.2003 92.7002 47.2003 92.9002C47.2003 93.1002 47.2003 93.2002 47.2003 93.3002C47.2003 93.4002 47.2003 93.5002 47.2003 93.6002H47.1003C47.1003 93.3002 47.0004 93.1002 46.8004 92.9002C46.6004 92.8002 46.4004 92.7002 46.0004 92.7002H45.1003V93.9002C45.1003 94.4002 45.2004 94.7002 45.3004 94.8002C45.4004 94.9002 45.8004 95.0002 46.3004 95.1002V95.2002C45.6004 95.2002 45.2004 95.2002 44.8004 95.2002C44.6004 95.2002 44.4003 95.2002 44.2003 95.2002C44.0003 95.2002 43.7004 95.2002 43.4004 95.2002Z" fill="white"/>
<path d="M48.0996 92.4C48.0996 91.5 48.3997 90.9 48.8997 90.3C49.3997 89.8 50.1996 89.5 51.0996 89.5C51.9996 89.5 52.6996 89.8 53.1996 90.3C53.6996 90.8 53.9996 91.5 53.9996 92.4C53.9996 93.2 53.6996 93.9 53.1996 94.4C52.6996 94.9 51.8996 95.2 50.9996 95.2C50.0996 95.2 49.3997 94.9 48.8997 94.4C48.3997 94 48.0996 93.3 48.0996 92.4ZM48.9996 92.3C48.9996 93.1 49.1996 93.8 49.5996 94.3C49.9996 94.8 50.4996 95.1 51.0996 95.1C51.6996 95.1 52.1996 94.9 52.4996 94.4C52.8996 93.9 52.9996 93.3 52.9996 92.6C52.9996 92.3 52.9997 91.9 52.8997 91.6C52.7997 91.3 52.6996 91 52.4996 90.8C52.2996 90.5 52.0997 90.2 51.7997 90.1C51.4997 89.9 51.1997 89.9 50.8997 89.9C50.2997 89.9 49.7996 90.1 49.4996 90.6C49.1996 91 48.9996 91.6 48.9996 92.3Z" fill="white"/>
<path d="M54.9996 93.1002V91.1002C54.9996 90.8002 54.9996 90.5002 54.9996 90.4002C54.9996 90.3002 54.8997 90.2002 54.7997 90.1002C54.6997 90.0002 54.5996 90.0002 54.4996 89.9002C54.3996 89.9002 54.1996 89.8002 54.0996 89.8002V89.7002C54.2996 89.7002 54.3996 89.7002 54.5996 89.7002C54.7996 89.7002 55.0996 89.7002 55.4996 89.7002C55.8996 89.7002 56.1997 89.7002 56.3997 89.7002C56.5997 89.7002 56.7997 89.7002 56.8997 89.7002V89.8002C56.4997 89.8002 56.1996 89.9002 55.9996 90.1002C55.7996 90.3002 55.7997 90.6002 55.7997 91.1002V93.1002C55.7997 93.5002 55.7997 93.8002 55.8997 94.0002C55.9997 94.2002 56.0996 94.4002 56.1996 94.5002C56.3996 94.7002 56.5997 94.8002 56.7997 94.9002C56.9997 95.0002 57.2996 95.0002 57.5996 95.0002C57.9996 95.0002 58.2996 94.9002 58.4996 94.8002C58.6996 94.7002 58.8996 94.4002 59.0996 94.1002C59.1996 93.9002 59.1997 93.7002 59.2997 93.4002C59.3997 93.1002 59.2997 92.7002 59.2997 92.0002C59.2997 91.4002 59.2997 91.0002 59.2997 90.7002C59.2997 90.5002 59.1996 90.3002 59.0996 90.2002C58.9996 90.1002 58.8996 90.0002 58.6996 89.9002C58.4996 89.8002 58.2996 89.8002 58.0996 89.8002V89.7002C58.1996 89.7002 58.3996 89.7002 58.5996 89.7002C58.7996 89.7002 58.9997 89.7002 59.2997 89.7002C59.5997 89.7002 59.8996 89.7002 59.9996 89.7002C60.1996 89.7002 60.2997 89.7002 60.3997 89.7002V89.8002C60.0997 89.8002 59.8997 89.9002 59.7997 90.2002C59.6997 90.4002 59.5996 91.0002 59.5996 92.0002C59.5996 92.1002 59.5996 92.2002 59.5996 92.4002C59.5996 93.3002 59.4997 93.9002 59.3997 94.2002C59.1997 94.6002 58.9996 94.9002 58.5996 95.0002C58.1996 95.2002 57.7996 95.3002 57.1996 95.3002C56.7996 95.3002 56.3996 95.2002 56.0996 95.1002C55.7996 95.0002 55.4997 94.8002 55.3997 94.6002C55.2997 94.4002 55.1996 94.3002 55.1996 94.0002C54.9996 93.9002 54.9996 93.5002 54.9996 93.1002Z" fill="white"/>
<path d="M60.8 95.1998V95.0998C61.2 95.0998 61.5 94.8998 61.6 94.6998C61.7 94.4998 61.8 93.8998 61.8 93.1998V91.6998C61.8 91.5998 61.8 91.4998 61.8 91.3998C61.8 91.2998 61.8 91.1998 61.8 91.1998C61.8 90.9998 61.8 90.7998 61.7 90.5998C61.6 90.4998 61.6 90.2998 61.4 90.1998C61.3 90.0998 61.2 89.9998 61 89.9998C60.9 89.8998 60.7 89.8998 60.5 89.8998V89.7998C60.6 89.7998 60.7 89.7998 60.9 89.7998C61.1 89.7998 61.2 89.7998 61.3 89.7998C61.4 89.7998 61.5 89.7998 61.6 89.7998C61.7 89.7998 61.9 89.7998 61.9 89.7998L65.9 93.9998V92.1998C65.9 91.4998 65.9 91.0998 65.8 90.7998C65.7 90.4998 65.7 90.3998 65.6 90.2998C65.5 90.1998 65.4 90.0998 65.3 90.0998C65.2 89.9998 65 89.9998 64.8 89.9998V89.8998C64.9 89.8998 65.1 89.8998 65.2 89.8998C65.4 89.8998 65.6 89.8998 65.9 89.8998C66.2 89.8998 66.4 89.8998 66.6 89.8998C66.7 89.8998 66.9 89.8998 67 89.8998V89.9998H66.9C66.6 89.9998 66.4 90.0998 66.3 90.3998C66.2 90.6998 66.1 91.1998 66.1 91.9998V93.6998C66.1 94.0998 66.1 94.3998 66.1 94.6998C66.1 94.9998 66.1 95.2998 66.1 95.4998C65.9 95.2998 65.8 95.0998 65.6 94.8998C65.4 94.6998 65.3 94.5998 65.3 94.4998L62 90.9998V92.5998C62 93.3998 62 93.8998 62 94.1998C62 94.4998 62.1 94.6998 62.2 94.7998C62.3 94.8998 62.4 94.9998 62.5 95.0998C62.6 95.1998 62.9 95.1998 63.1 95.2998V95.3998C62.6 95.3998 62.2 95.3998 61.9 95.3998C61.8 95.3998 61.6 95.3998 61.4 95.3998C61.4 95.1998 61.1 95.1998 60.8 95.1998Z" fill="white"/>
<path d="M67.5 95.2002V95.1002C67.9 95.1002 68.2 95.0002 68.3 94.8002C68.4 94.6002 68.5 94.4002 68.5 94.0002V90.9002C68.5 90.5002 68.4 90.3002 68.3 90.1002C68.2 90.0002 67.9 89.9002 67.5 89.8002V89.7002C67.9 89.7002 68.4 89.7002 68.9 89.7002C69.4 89.7002 69.7 89.7002 69.8 89.7002C71 89.7002 71.9 90.0002 72.5 90.5002C73.1 91.0002 73.5 91.7002 73.5 92.6002C73.5 93.5002 73.2 94.1002 72.6 94.6002C72 95.1002 71.1 95.3002 70 95.3002C69.8 95.3002 69.4 95.3002 68.8 95.3002C68.3 95.2002 67.9 95.2002 67.5 95.2002ZM69.3 93.8002C69.3 94.3002 69.4 94.7002 69.5 94.8002C69.7 95.0002 70 95.1002 70.4 95.1002C71 95.1002 71.5 94.9002 71.9 94.4002C72.3 94.0002 72.5 93.4002 72.5 92.7002C72.5 91.8002 72.2 91.2002 71.6 90.7002C71 90.2002 70.2 90.0002 69.2 90.0002H69.1V93.8002H69.3Z" fill="white"/>
<path d="M73.6992 95.1998V95.0998C74.0992 94.9998 74.3993 94.9998 74.4993 94.7998C74.5993 94.5998 74.6992 94.3998 74.6992 93.9998V90.9998C74.6992 90.5998 74.5993 90.2998 74.4993 90.0998C74.3993 89.9998 74.0992 89.8998 73.6992 89.8998V89.7998C73.9992 89.7998 74.1993 89.7998 74.4993 89.7998C74.7993 89.7998 75.1993 89.7998 75.7993 89.7998C76.3993 89.7998 76.8992 89.7998 77.1992 89.7998C77.4992 89.7998 77.7993 89.7998 77.9993 89.7998C77.9993 89.9998 77.9993 90.1998 77.8993 90.3998C77.8993 90.5998 77.8993 90.7998 77.8993 91.0998H77.7993C77.7993 90.6998 77.6993 90.3998 77.4993 90.2998C77.2993 90.1998 76.9993 90.0998 76.4993 90.0998H75.4993V92.3998H76.2993C76.6993 92.3998 76.9992 92.2998 77.1992 92.1998C77.3992 92.0998 77.4993 91.8998 77.4993 91.5998H77.5992C77.5992 91.6998 77.5992 91.9998 77.5992 92.2998C77.5992 92.5998 77.5992 92.7998 77.5992 92.9998V93.4998H77.4993C77.4993 93.1998 77.3992 92.9998 77.1992 92.8998C76.9992 92.7998 76.6993 92.6998 76.2993 92.6998H75.4993V94.0998C75.4993 94.4998 75.5993 94.7998 75.7993 94.9998C75.9993 95.1998 76.2993 95.1998 76.7993 95.1998C77.2993 95.1998 77.5993 95.0998 77.8993 94.8998C78.1993 94.6998 78.2993 94.2998 78.3993 93.7998H78.4993C78.4993 94.0998 78.4993 94.3998 78.3993 94.6998C78.2993 94.9998 78.2992 95.1998 78.1992 95.4998C77.7992 95.4998 77.3993 95.4998 76.9993 95.4998C76.5993 95.4998 76.0992 95.4998 75.5992 95.4998C75.0992 95.4998 74.6993 95.4998 74.4993 95.4998C74.1993 95.1998 73.8992 95.1998 73.6992 95.1998Z" fill="white"/>
<path d="M78.9004 95.2002V95.1002C79.3004 95.1002 79.6003 95.0002 79.7003 94.8002C79.8003 94.6002 79.9004 94.4002 79.9004 94.0002V90.9002C79.9004 90.5002 79.8003 90.3002 79.7003 90.1002C79.6003 90.0002 79.3004 89.9002 78.9004 89.8002V89.7002C79.3004 89.7002 79.8004 89.7002 80.3004 89.7002C80.8004 89.7002 81.1003 89.7002 81.2003 89.7002C82.4003 89.7002 83.3004 90.0002 83.9004 90.5002C84.6004 91.0002 84.9004 91.7002 84.9004 92.6002C84.9004 93.5002 84.6004 94.1002 84.0004 94.6002C83.4004 95.1002 82.5004 95.3002 81.4004 95.3002C81.2004 95.3002 80.8003 95.3002 80.2003 95.3002C79.7003 95.2002 79.3004 95.2002 78.9004 95.2002ZM80.7003 93.8002C80.7003 94.3002 80.8004 94.7002 80.9004 94.8002C81.1004 95.0002 81.4004 95.1002 81.8004 95.1002C82.4004 95.1002 82.9004 94.9002 83.3004 94.4002C83.7004 93.9002 83.9004 93.4002 83.9004 92.7002C83.9004 91.8002 83.6004 91.2002 83.0004 90.7002C82.4004 90.2002 81.6003 90.0002 80.6003 90.0002H80.5004V93.8002H80.7003Z" fill="white"/>
<path d="M45.8004 79.2998C45.7004 79.1998 45.6003 79.0998 45.6003 79.0998L45.5004 78.9998C45.2004 78.7998 44.9003 78.4998 44.6003 78.2998L15.9004 113.4C15.6004 113.7 15.4004 114.1 15.4004 114.6C15.4004 115.5 16.1004 116.2 17.0004 116.2C17.6004 116.2 18.2004 115.8 18.4004 115.3L47.3004 80.0998C46.8004 79.8998 46.3004 79.6998 45.8004 79.2998Z" fill="white"/>
<path d="M44.4996 35.5998C44.8996 35.1998 45.3996 34.9998 45.9996 34.8998L18.9996 1.7998L16.5996 3.8998L43.7997 37.0998C43.7997 36.4998 44.0996 35.9998 44.4996 35.5998Z" fill="white"/>
<path d="M82.2007 35.7998C82.6007 36.1998 82.9007 36.6998 83.0007 37.1998L110.301 3.8998L107.901 1.7998L80.8008 34.9998C81.3008 35.0998 81.9007 35.3998 82.2007 35.7998Z" fill="white"/>
<path d="M110.6 113.4L82.0996 78.3999C81.9996 78.5999 81.9997 78.7999 81.8997 78.8999C81.3997 79.6999 80.6997 80.0999 79.8997 80.1999C79.7997 80.2999 79.6996 80.2999 79.5996 80.2999L108.2 115.2C108.5 115.7 109 116.1 109.6 116.1C110.5 116.1 111.2 115.4 111.2 114.5C111.1 114.1 110.9 113.7 110.6 113.4Z" fill="white"/>
<path d="M182.299 80.8997C182.299 86.1997 182.499 89.8997 182.899 91.9997C183.299 94.0997 184.099 95.6997 185.099 96.6997C186.199 97.6997 187.699 98.5997 189.499 99.2997C191.299 99.9997 193.699 100.6 196.599 101L196.499 102.9C191.299 102.8 187.399 102.8 184.699 102.7C181.999 102.7 179.499 102.6 177.199 102.6C172.899 102.6 166.599 102.7 158.099 102.8H157.799V100.9C160.699 100.5 163.099 99.8997 164.999 99.1997C166.899 98.4997 168.299 97.5997 169.399 96.5997C170.499 95.5997 171.199 93.9997 171.599 91.8997C171.999 89.7997 172.199 85.9997 172.199 80.7997V33.1997H164.899C158.299 33.1997 153.599 34.1997 150.499 36.1997C147.499 38.1997 145.299 41.7997 143.999 46.7997L142.199 46.4997L144.199 26.1997H145.399L148.599 29.5997C151.899 29.5997 156.699 29.5997 163.099 29.6997C169.499 29.6997 174.299 29.7997 177.499 29.7997C180.599 29.7997 185.399 29.7997 191.699 29.6997C197.999 29.6997 202.699 29.5997 205.799 29.5997L209.299 26.1997H210.099L211.899 46.6997L210.199 47.0997C208.999 42.0997 206.799 38.4997 203.799 36.3997C200.699 34.2997 196.199 33.1997 190.199 33.1997H182.299V80.8997Z" fill="white"/>
<path d="M212.998 102.9L212.898 101C216.098 100.9 218.198 100.2 219.198 99.0999C220.198 97.8999 220.798 94.8999 220.798 89.9999L220.698 41.6999C220.698 39.4999 220.498 37.8999 220.098 36.7999C219.698 35.6999 218.998 34.6999 218.098 33.7999L215.398 31.4999V30.5999L228.298 25.3999L229.398 25.8999L228.798 61.2999C232.398 58.8999 235.698 56.9999 238.698 55.7999C241.698 54.5999 244.398 53.9999 246.798 53.9999C251.698 53.9999 255.298 55.3999 257.498 58.0999C259.698 60.7999 260.998 65.3999 261.098 71.5999L261.598 91.2999C261.698 95.4999 262.298 98.0999 263.298 99.0999C264.298 100.1 266.298 100.7 269.298 101V102.9C267.998 102.8 266.498 102.8 264.898 102.7C263.298 102.7 260.798 102.6 257.398 102.6C253.998 102.6 251.498 102.6 249.798 102.7C248.098 102.7 246.398 102.8 244.998 102.9L244.898 101C248.098 100.7 250.298 99.8999 251.398 98.8999C252.498 97.7999 252.998 95.5999 252.998 92.0999C252.998 91.7999 252.998 91.2999 252.898 90.5999C252.898 89.7999 252.798 89.2999 252.798 88.7999L252.598 76.5999C252.498 70.5999 251.398 66.2999 249.298 63.5999C247.198 60.8999 243.998 59.5999 239.598 59.5999C237.898 59.5999 236.198 59.8999 234.398 60.3999C232.598 60.9999 230.798 61.7999 228.798 62.9999V89.7999C228.798 94.2999 229.398 97.1999 230.498 98.5999C231.598 99.9999 233.798 100.7 237.098 100.9L236.998 102.8C235.598 102.7 233.998 102.7 232.298 102.6C230.598 102.6 227.998 102.5 224.698 102.5C221.398 102.5 218.998 102.5 217.298 102.6C215.798 102.8 214.298 102.9 212.998 102.9Z" fill="white"/>
<path d="M313.199 90.1998L314.699 91.4998C311.999 95.3998 308.899 98.3998 305.499 100.4C302.099 102.4 298.399 103.4 294.399 103.4C288.199 103.4 282.899 101.1 278.699 96.5998C274.499 91.9998 272.299 86.2998 272.299 79.4998C272.299 72.2998 274.599 66.1998 279.099 61.2998C283.599 56.2998 289.099 53.7998 295.599 53.7998C300.799 53.7998 304.999 55.2998 308.199 58.1998C311.399 61.0998 313.099 65.1998 313.399 70.1998C307.599 69.9998 301.999 69.7998 296.799 69.6998C291.599 69.5998 286.599 69.4998 281.899 69.4998C281.699 70.4998 281.499 71.3998 281.399 72.3998C281.299 73.3998 281.199 74.3998 281.199 75.3998C281.199 81.4998 282.999 86.5998 286.499 90.5998C290.099 94.5998 294.499 96.6998 299.799 96.6998C302.399 96.6998 304.899 96.0998 307.099 94.9998C309.499 94.0998 311.499 92.4998 313.199 90.1998ZM302.899 67.0998C302.199 63.5998 301.099 60.8998 299.499 59.0998C297.899 57.1998 295.899 56.2998 293.599 56.2998C290.899 56.2998 288.599 57.2998 286.599 59.2998C284.599 61.2998 283.199 64.0998 282.399 67.5998L302.899 67.0998Z" fill="white"/>
<path d="M422.899 94.7V96.6C417.099 99.2 411.599 101.2 406.299 102.5C401.099 103.8 395.999 104.4 391.199 104.4C378.599 104.4 368.499 101 360.799 94.2C353.099 87.4 349.299 78.4 349.299 67.3C349.299 61.7 350.299 56.5 352.399 51.8C354.499 47.1 357.599 42.9 361.799 39.3C365.799 35.7 370.499 33.1 375.699 31.2C380.899 29.4 386.599 28.5 392.699 28.5C396.799 28.5 401.099 28.9 405.399 29.6C409.699 30.3 413.999 31.4 418.399 32.8C418.199 35.6 418.099 38.6 417.999 41.6C417.899 44.7 417.799 48 417.699 51.5H416.099C414.499 44.9 411.599 39.8 407.399 36.3C403.199 32.8 397.799 31 391.299 31C382.299 31 375.099 34 369.599 40C364.099 46 361.299 53.9 361.299 63.8C361.299 68.7 362.199 73.3 363.899 77.8C365.599 82.2 368.099 86.2 371.399 89.8C374.699 93.4 378.699 96.1 383.499 98C388.299 99.9 393.399 100.9 398.899 100.9C402.299 100.9 404.599 100.4 405.699 99.3C406.799 98.2 407.399 96 407.399 92.5V82.5C407.399 78.3 406.399 75.4 404.399 73.7C402.399 72 398.699 70.9 393.299 70.4V68.5C396.099 68.6 398.799 68.6 401.499 68.6C404.199 68.6 406.899 68.7 409.499 68.7C412.199 68.7 414.899 68.7 417.599 68.6C420.199 68.6 422.799 68.5 425.399 68.4L425.499 70.3C422.299 70.7 420.199 71.6 419.099 73C417.999 74.4 417.499 77.4 417.499 82V94.7H422.899Z" fill="white"/>
<path d="M440.398 74.8002V47.9002C440.398 43.3002 440.198 40.2002 439.798 38.6002C439.398 37.0002 438.698 35.8002 437.698 35.0002C436.398 34.0002 434.998 33.2002 433.298 32.7002C431.598 32.2002 429.698 31.8002 427.398 31.7002V29.8002C429.598 29.9002 431.998 29.9002 434.498 30.0002C436.998 30.0002 440.898 30.1002 445.998 30.1002C451.198 30.1002 455.098 30.1002 457.698 30.0002C460.298 30.0002 462.698 29.9002 464.898 29.8002L464.998 31.7002C459.298 31.9002 455.398 33.0002 453.398 35.1002C451.398 37.2002 450.398 41.4002 450.398 47.8002V73.8002C450.398 78.9002 450.798 82.9002 451.598 85.6002C452.398 88.4002 453.698 90.7002 455.498 92.6002C457.598 94.8002 460.298 96.5002 463.498 97.7002C466.698 98.9002 470.398 99.5002 474.398 99.5002C479.498 99.5002 483.598 98.6002 486.798 96.8002C489.998 95.0002 492.598 92.0002 494.498 88.0002C495.498 86.0002 496.098 83.1002 496.498 79.3002C496.898 75.5002 497.098 69.4002 497.098 61.1002C497.098 53.0002 496.898 47.3002 496.498 44.1002C496.098 40.9002 495.298 38.6002 494.298 37.0002C493.098 35.2002 491.398 33.9002 489.198 33.0002C486.998 32.1002 484.298 31.7002 480.898 31.6002V29.7002C482.798 29.8002 484.798 29.8002 486.898 29.9002C488.998 29.9002 492.198 30.0002 496.498 30.0002C500.798 30.0002 504.098 30.0002 506.198 29.9002C508.298 29.9002 510.298 29.8002 512.098 29.7002V31.6002H511.898C507.798 31.6002 504.898 33.2002 503.398 36.4002C501.898 39.6002 501.098 47.6002 501.098 60.4002C501.098 61.5002 501.098 63.1002 500.998 65.3002C500.898 77.2002 499.898 85.3002 497.998 89.5002C495.898 94.4002 492.398 98.2002 487.498 100.7C482.598 103.2 476.498 104.5 469.198 104.5C463.398 104.5 458.398 103.7 454.198 102.1C450.098 100.5 446.898 98.2002 444.598 95.1002C443.098 93.0002 441.998 90.5002 441.298 87.8002C440.698 85.1002 440.398 80.8002 440.398 74.8002Z" fill="white"/>
<path d="M515.1 102.9V101C520.4 100.7 524 99.5998 525.9 97.6998C527.8 95.7998 528.7 91.5998 528.7 85.0998V47.4998C528.7 40.9998 527.8 36.7998 525.9 34.9998C524.1 33.0998 520.4 31.9998 515 31.6998V29.7998C517.1 29.7998 520.3 29.7998 524.5 29.8998C528.7 29.9998 531.9 29.9998 534 29.9998C536.1 29.9998 539.2 29.9998 543.3 29.8998C547.4 29.7998 550.5 29.7998 552.5 29.7998V31.6998C547.1 31.9998 543.5 33.1998 541.6 35.0998C539.8 36.9998 538.8 41.1998 538.8 47.5998V85.1998C538.8 91.6998 539.7 95.8998 541.6 97.7998C543.5 99.6998 547.1 100.8 552.4 101.1L552.3 103C547.1 102.9 543.2 102.8 540.7 102.8C538.2 102.8 535.8 102.8 533.5 102.8C531.3 102.8 528.9 102.8 526.3 102.8C524.1 102.8 520.2 102.8 515.1 102.9Z" fill="white"/>
<path d="M556 102.9V101C561.4 100.6 565.1 99.3996 566.9 97.4996C568.8 95.5996 569.7 91.9996 569.7 86.5996V45.0996C569.7 40.2996 568.8 36.8996 567.1 35.0996C565.4 33.2996 562 32.0996 557.1 31.4996V29.5996C563 29.4996 569.2 29.3996 575.9 29.2996C582.5 29.1996 586.3 29.0996 587.2 29.0996C602.5 29.0996 614.5 32.3996 623.2 39.0996C631.9 45.7996 636.2 54.8996 636.2 66.4996C636.2 77.7996 632.1 86.7996 623.8 93.2996C615.5 99.7996 604.1 103.1 589.5 103.1C586.7 103.1 581.5 103.1 574 103C566.4 103 560.4 103 556 102.9ZM579.8 83.6996C579.8 90.4996 580.9 94.9996 583.1 97.2996C585.3 99.4996 589.4 100.7 595.4 100.7C603.6 100.7 610.4 97.6996 615.6 91.7996C620.8 85.8996 623.4 78.1996 623.4 68.5996C623.4 57.0996 619.6 48.0996 612.1 41.4996C604.6 34.9996 594.1 31.6996 580.7 31.6996H579.8V83.6996Z" fill="white"/>
<path d="M645.199 66C645.199 54.6 648.799 45.5 655.999 38.7C663.199 31.9 672.899 28.5 684.899 28.5C696.799 28.5 706.299 32 713.399 39C720.499 46 724.099 55.4 724.099 67C724.099 78.2 720.499 87.2 713.199 94C705.899 100.8 696.299 104.2 684.299 104.2C672.399 104.2 662.899 100.7 655.799 93.7C648.799 86.9 645.199 77.6 645.199 66ZM657.699 64.5C657.699 75.3 660.299 84.1 665.499 90.9C670.699 97.7 677.299 101.1 685.399 101.1C693.299 101.1 699.699 98.1 704.499 92C709.299 86 711.699 77.9 711.699 67.8C711.699 63.3 711.099 59 709.999 54.9C708.899 50.8 707.299 47.1 705.199 44C702.399 39.8 699.199 36.6 695.699 34.6C692.199 32.5 688.199 31.5 683.799 31.5C675.999 31.5 669.699 34.5 664.899 40.6C660.099 46.6 657.699 54.6 657.699 64.5Z" fill="white"/>
<path d="M728.599 102.9L728.499 101C733.899 100.7 737.599 99 739.499 95.7C741.499 92.4 742.399 85.7 742.399 75.5V55.4C742.399 54.5 742.399 53.3 742.499 51.7C742.499 50.2 742.599 49.1 742.599 48.5C742.599 45.2 742.299 42.6 741.599 40.8C740.899 39 739.799 37.4 738.199 35.9C736.899 34.7 735.299 33.7 733.399 33C731.499 32.3 729.499 31.8 727.199 31.6V29.7C728.299 29.7 729.999 29.7 732.099 29.8C734.199 29.9 735.799 29.9 736.799 29.9C737.799 29.9 739.299 29.9 741.299 29.8C743.199 29.7 744.699 29.7 745.599 29.7L798.099 85.8V61.6C798.099 52.5 797.899 46.4 797.399 43.2C796.899 40 795.999 37.7 794.799 36.1C793.699 34.7 792.199 33.7 790.299 32.9C788.399 32.2 785.899 31.7 783.099 31.4V29.5C784.899 29.6 786.899 29.6 788.999 29.7C791.099 29.7 794.199 29.8 798.299 29.8C802.299 29.8 805.299 29.8 807.199 29.7C809.099 29.7 810.899 29.6 812.499 29.5V31.4H811.699C807.999 31.4 805.399 33.3 803.899 37C802.399 40.7 801.699 47.7 801.699 57.9V80.3C801.699 85.5 801.699 90.1 801.799 94.2C801.899 98.2 801.999 102 802.099 105.4H801.499C799.399 102.9 797.099 100.3 794.599 97.5C792.099 94.7 790.699 93.1 790.499 92.8L746.099 45.8V66.5C746.099 76.7 746.299 83.5 746.699 87.1C747.099 90.6 747.799 93.2 748.699 94.7C749.599 96.2 750.999 97.4 752.999 98.3C754.999 99.3 757.799 100.1 761.399 100.8V102.7C761.299 102.7 761.199 102.7 761.099 102.7C753.899 102.6 748.499 102.5 744.899 102.5C742.899 102.5 740.799 102.5 738.499 102.6C736.199 102.8 732.899 102.9 728.599 102.9Z" fill="white"/>
<path d="M907.801 82.3H901.801V47.9H907.801V82.3ZM990.801 82.3H984.801L969.501 57.9V82.3H963.501V47.9H969.501L984.901 72.4V47.9H990.801V82.3ZM1070.5 52.7H1059.8V82.3H1053.9V52.7H1043.3V47.9H1070.6L1070.5 52.7ZM1143.6 67H1129.5V77.6H1146V82.4H1123.5V48H1145.8V52.8H1129.4V62.3H1143.5V67H1143.6ZM1211.9 69.1H1205.2V82.4H1199.2V48H1211.3C1215.3 48 1218.3 48.9 1220.5 50.7C1222.7 52.5 1223.7 55.1 1223.7 58.4C1223.7 60.7 1223.1 62.6 1222 64.2C1220.9 65.7 1219.4 66.9 1217.4 67.8L1225.1 82.1V82.4H1218.7L1211.9 69.1ZM1205.2 64.3H1211.3C1213.3 64.3 1214.9 63.8 1216 62.8C1217.1 61.8 1217.7 60.4 1217.7 58.6C1217.7 56.8 1217.2 55.3 1216.1 54.3C1215.1 53.3 1213.5 52.8 1211.4 52.7H1205.1L1205.2 64.3ZM1297.1 74.3H1283.8L1281 82.3H1274.8L1287.8 47.9H1293.2L1306.2 82.3H1300L1297.1 74.3ZM1285.5 69.5H1295.5L1290.5 55.2L1285.5 69.5ZM1384.2 71.1C1383.9 74.8 1382.5 77.6 1380.1 79.7C1377.7 81.7 1374.6 82.8 1370.7 82.8C1368 82.8 1365.5 82.2 1363.4 80.9C1361.3 79.6 1359.7 77.7 1358.6 75.3C1357.5 72.9 1356.9 70.1 1356.8 67V63.8C1356.8 60.6 1357.4 57.7 1358.5 55.2C1359.7 52.7 1361.3 50.8 1363.4 49.5C1365.6 48.2 1368 47.5 1370.9 47.5C1374.7 47.5 1377.8 48.5 1380.1 50.6C1382.4 52.7 1383.8 55.6 1384.1 59.3H1378.1C1377.8 56.8 1377.1 55 1375.9 54C1374.8 52.9 1373.1 52.3 1370.8 52.3C1368.2 52.3 1366.2 53.3 1364.8 55.2C1363.4 57.1 1362.7 59.9 1362.7 63.5V66.5C1362.7 70.2 1363.4 73.1 1364.7 75C1366 77 1368 77.9 1370.6 77.9C1372.9 77.9 1374.7 77.4 1375.9 76.3C1377.1 75.2 1377.8 73.5 1378.1 71H1384.2V71.1ZM1462.2 52.7H1451.5V82.3H1445.6V52.7H1435V47.9H1462.3L1462.2 52.7ZM1521.4 82.3H1515.4V47.9H1521.4V82.3ZM1589.3 74.8L1598 47.9H1604.6L1592.2 82.3H1586.4L1574.1 47.9H1580.6L1589.3 74.8ZM1677.1 67H1663V77.6H1679.5V82.4H1657V48H1679.3V52.8H1662.9V62.3H1677L1677.1 67Z" fill="white"/>
</svg>
